<mxfile host="app.diagrams.net" modified="2020-08-10T06:59:30.460Z" agent="5.0 (Windows NT 10.0; Win64; x64) AppleWebKit/537.36 (KHTML, like Gecko) Chrome/84.0.4147.105 Safari/537.36" etag="f0MjSRD2qFJqZJCN4V_J" version="13.6.2" type="github">
  <diagram name="Page-1" id="9361dd3d-8414-5efd-6122-117bd74ce7a7">
    <mxGraphModel dx="887" dy="1112" grid="1" gridSize="10" guides="1" tooltips="1" connect="1" arrows="1" fold="1" page="0" pageScale="1.5" pageWidth="826" pageHeight="1169" background="#ffffff" math="0" shadow="0">
      <root>
        <mxCell id="0" />
        <mxCell id="1" parent="0" />
        <mxCell id="zAETe-kaXZAgj4HdxsVo-219" value="" style="fillColor=#CC4125;strokeColor=#660000" vertex="1" parent="1">
          <mxGeometry x="660" y="420" width="10" height="70" as="geometry" />
        </mxCell>
        <mxCell id="zAETe-kaXZAgj4HdxsVo-220" value="docker" style="shadow=1;fillColor=#A2C4C9;strokeColor=none" vertex="1" parent="1">
          <mxGeometry x="612.5" y="330" width="105" height="50" as="geometry" />
        </mxCell>
        <mxCell id="zAETe-kaXZAgj4HdxsVo-221" value="" style="fillColor=#CC4125;strokeColor=#660000" vertex="1" parent="1">
          <mxGeometry x="802.5" y="450" width="10" height="80" as="geometry" />
        </mxCell>
        <mxCell id="zAETe-kaXZAgj4HdxsVo-222" value="eventQ&#xa;(goroutine)" style="shadow=1;fillColor=#A2C4C9;strokeColor=none" vertex="1" parent="1">
          <mxGeometry x="755" y="330" width="105" height="50" as="geometry" />
        </mxCell>
        <mxCell id="zAETe-kaXZAgj4HdxsVo-223" value="" style="edgeStyle=none;endArrow=none;dashed=1" edge="1" parent="1" source="zAETe-kaXZAgj4HdxsVo-222" target="zAETe-kaXZAgj4HdxsVo-221">
          <mxGeometry x="732.3350694444446" y="435" width="100" height="100" as="geometry">
            <mxPoint x="807.2588734567901" y="380" as="sourcePoint" />
            <mxPoint x="807.5761959876544" y="435" as="targetPoint" />
          </mxGeometry>
        </mxCell>
        <mxCell id="zAETe-kaXZAgj4HdxsVo-224" value="create" style="edgeStyle=none;verticalLabelPosition=top;verticalAlign=bottom" edge="1" parent="1">
          <mxGeometry x="680" y="362" width="100" height="100" as="geometry">
            <mxPoint x="670" y="449.5" as="sourcePoint" />
            <mxPoint x="800" y="449.5" as="targetPoint" />
          </mxGeometry>
        </mxCell>
        <mxCell id="zAETe-kaXZAgj4HdxsVo-225" value="" style="edgeStyle=none;verticalLabelPosition=top;verticalAlign=bottom;endArrow=none;startArrow=classic;dashed=1" edge="1" parent="1">
          <mxGeometry x="680" y="382.49887345679014" width="100" height="100" as="geometry">
            <mxPoint x="670" y="469.9988734567901" as="sourcePoint" />
            <mxPoint x="800" y="469.9988734567901" as="targetPoint" />
          </mxGeometry>
        </mxCell>
        <mxCell id="zAETe-kaXZAgj4HdxsVo-226" value="containerd" style="shadow=1;fillColor=#A2C4C9;strokeColor=none" vertex="1" parent="1">
          <mxGeometry x="1000" y="330" width="105" height="50" as="geometry" />
        </mxCell>
        <mxCell id="zAETe-kaXZAgj4HdxsVo-227" value="" style="edgeStyle=elbowEdgeStyle;elbow=horizontal;endArrow=none;dashed=1" edge="1" parent="1" source="zAETe-kaXZAgj4HdxsVo-220" target="zAETe-kaXZAgj4HdxsVo-219">
          <mxGeometry x="690" y="580" width="100" height="100" as="geometry">
            <mxPoint x="690" y="680" as="sourcePoint" />
            <mxPoint x="790" y="580" as="targetPoint" />
          </mxGeometry>
        </mxCell>
        <mxCell id="zAETe-kaXZAgj4HdxsVo-228" value="" style="edgeStyle=none;dashed=1;endArrow=none" edge="1" parent="1" source="zAETe-kaXZAgj4HdxsVo-251">
          <mxGeometry x="510" y="570" width="100" height="100" as="geometry">
            <mxPoint x="510" y="670" as="sourcePoint" />
            <mxPoint x="665" y="820" as="targetPoint" />
          </mxGeometry>
        </mxCell>
        <mxCell id="zAETe-kaXZAgj4HdxsVo-229" value="" style="fillColor=#CC4125;strokeColor=#660000" vertex="1" parent="1">
          <mxGeometry x="1047.5" y="440.00333333333333" width="10" height="81.66666666666669" as="geometry" />
        </mxCell>
        <mxCell id="zAETe-kaXZAgj4HdxsVo-230" value="" style="edgeStyle=none;endArrow=none;dashed=1" edge="1" parent="1" source="zAETe-kaXZAgj4HdxsVo-226" target="zAETe-kaXZAgj4HdxsVo-229">
          <mxGeometry x="1416.5711805555559" y="475" width="100" height="100" as="geometry">
            <mxPoint x="1491.7361111111113" y="420" as="sourcePoint" />
            <mxPoint x="1491.7361111111113" y="599.3942901234568" as="targetPoint" />
          </mxGeometry>
        </mxCell>
        <mxCell id="zAETe-kaXZAgj4HdxsVo-231" value="" style="edgeStyle=none;endArrow=none;dashed=1" edge="1" parent="1" source="zAETe-kaXZAgj4HdxsVo-267">
          <mxGeometry x="1081.0711805555559" y="601.3671450617285" width="100" height="100" as="geometry">
            <mxPoint x="1052" y="521.6700000000001" as="sourcePoint" />
            <mxPoint x="1052" y="860" as="targetPoint" />
          </mxGeometry>
        </mxCell>
        <mxCell id="zAETe-kaXZAgj4HdxsVo-232" value="event  namespace==moby,topic~=|^/tasks/|" style="edgeStyle=none;verticalLabelPosition=top;verticalAlign=bottom;entryX=0;entryY=0.25;entryDx=0;entryDy=0;" edge="1" parent="1" target="zAETe-kaXZAgj4HdxsVo-229">
          <mxGeometry x="822.5" y="372" width="100" height="100" as="geometry">
            <mxPoint x="812.5" y="459.5" as="sourcePoint" />
            <mxPoint x="942.5" y="459.5" as="targetPoint" />
          </mxGeometry>
        </mxCell>
        <mxCell id="zAETe-kaXZAgj4HdxsVo-233" value="" style="edgeStyle=none;verticalLabelPosition=top;verticalAlign=bottom;endArrow=none;startArrow=classic;dashed=1;" edge="1" parent="1">
          <mxGeometry x="927.5" y="434.16887345679015" width="100" height="100" as="geometry">
            <mxPoint x="812" y="522" as="sourcePoint" />
            <mxPoint x="1047.5" y="521.66887345679" as="targetPoint" />
          </mxGeometry>
        </mxCell>
        <mxCell id="zAETe-kaXZAgj4HdxsVo-234" value="" style="fillColor=#CC4125;strokeColor=#660000" vertex="1" parent="1">
          <mxGeometry x="660" y="590" width="10" height="110" as="geometry" />
        </mxCell>
        <mxCell id="zAETe-kaXZAgj4HdxsVo-235" value="" style="edgeStyle=none;dashed=1;endArrow=none" edge="1" parent="1" source="zAETe-kaXZAgj4HdxsVo-219" target="zAETe-kaXZAgj4HdxsVo-234">
          <mxGeometry x="510" y="570" width="100" height="100" as="geometry">
            <mxPoint x="665" y="490" as="sourcePoint" />
            <mxPoint x="665" y="730" as="targetPoint" />
          </mxGeometry>
        </mxCell>
        <mxCell id="zAETe-kaXZAgj4HdxsVo-236" value="" style="edgeStyle=none;endArrow=none;dashed=1" edge="1" parent="1" source="zAETe-kaXZAgj4HdxsVo-261">
          <mxGeometry x="836.5711805555559" y="609.6971450617284" width="100" height="100" as="geometry">
            <mxPoint x="807.5" y="530" as="sourcePoint" />
            <mxPoint x="808" y="910" as="targetPoint" />
          </mxGeometry>
        </mxCell>
        <mxCell id="zAETe-kaXZAgj4HdxsVo-237" value="createContainer createTask startTask" style="edgeStyle=none;verticalLabelPosition=top;verticalAlign=bottom" edge="1" parent="1">
          <mxGeometry x="682.5" y="517" width="100" height="100" as="geometry">
            <mxPoint x="672.5" y="604.5" as="sourcePoint" />
            <mxPoint x="1050" y="605" as="targetPoint" />
          </mxGeometry>
        </mxCell>
        <mxCell id="zAETe-kaXZAgj4HdxsVo-238" value="" style="fillColor=#CC4125;strokeColor=#660000" vertex="1" parent="1">
          <mxGeometry x="1047.5" y="590" width="10" height="110" as="geometry" />
        </mxCell>
        <mxCell id="zAETe-kaXZAgj4HdxsVo-239" value="" style="edgeStyle=none;endArrow=none;dashed=1" edge="1" parent="1" target="zAETe-kaXZAgj4HdxsVo-238">
          <mxGeometry x="1081.0711805555559" y="601.3671450617285" width="100" height="100" as="geometry">
            <mxPoint x="1052" y="521.6700000000001" as="sourcePoint" />
            <mxPoint x="1052" y="725.8366666666668" as="targetPoint" />
          </mxGeometry>
        </mxCell>
        <mxCell id="zAETe-kaXZAgj4HdxsVo-240" value="shim" style="shadow=1;fillColor=#A2C4C9;strokeColor=none" vertex="1" parent="1">
          <mxGeometry x="1130" y="600" width="80" height="30" as="geometry" />
        </mxCell>
        <mxCell id="zAETe-kaXZAgj4HdxsVo-241" value="容器进程" style="shadow=1;fillColor=#f8cecc;strokeColor=#b85450;" vertex="1" parent="1">
          <mxGeometry x="1270" y="646" width="80" height="30" as="geometry" />
        </mxCell>
        <mxCell id="zAETe-kaXZAgj4HdxsVo-242" value="create" style="edgeStyle=none;verticalLabelPosition=top;verticalAlign=bottom" edge="1" parent="1">
          <mxGeometry x="1067.5" y="527" width="100" height="100" as="geometry">
            <mxPoint x="1057.5" y="614.5" as="sourcePoint" />
            <mxPoint x="1130" y="615" as="targetPoint" />
          </mxGeometry>
        </mxCell>
        <mxCell id="zAETe-kaXZAgj4HdxsVo-243" value="" style="edgeStyle=none;endArrow=none;dashed=1" edge="1" parent="1" source="zAETe-kaXZAgj4HdxsVo-244">
          <mxGeometry x="1198.5711805555559" y="700.5271450617284" width="100" height="100" as="geometry">
            <mxPoint x="1169.5" y="620.83" as="sourcePoint" />
            <mxPoint x="1169.7770210005676" y="689.16" as="targetPoint" />
          </mxGeometry>
        </mxCell>
        <mxCell id="zAETe-kaXZAgj4HdxsVo-244" value="" style="fillColor=#CC4125;strokeColor=#660000" vertex="1" parent="1">
          <mxGeometry x="1165" y="650" width="10" height="40" as="geometry" />
        </mxCell>
        <mxCell id="zAETe-kaXZAgj4HdxsVo-245" value="" style="edgeStyle=none;endArrow=none;dashed=1" edge="1" parent="1" target="zAETe-kaXZAgj4HdxsVo-244">
          <mxGeometry x="1198.5711805555559" y="700.5271450617284" width="100" height="100" as="geometry">
            <mxPoint x="1169.5" y="620.8299999999999" as="sourcePoint" />
            <mxPoint x="1169.7770210005676" y="689.1599999999999" as="targetPoint" />
          </mxGeometry>
        </mxCell>
        <mxCell id="zAETe-kaXZAgj4HdxsVo-246" value="" style="edgeStyle=none;endArrow=none;dashed=1" edge="1" parent="1" source="zAETe-kaXZAgj4HdxsVo-264">
          <mxGeometry x="1198.5711805555559" y="591.3671450617285" width="100" height="100" as="geometry">
            <mxPoint x="1169.6598078429756" y="690" as="sourcePoint" />
            <mxPoint x="1170" y="860" as="targetPoint" />
          </mxGeometry>
        </mxCell>
        <mxCell id="zAETe-kaXZAgj4HdxsVo-247" value="create" style="edgeStyle=none;verticalLabelPosition=top;verticalAlign=bottom" edge="1" parent="1">
          <mxGeometry x="1185" y="572.5" width="100" height="100" as="geometry">
            <mxPoint x="1175" y="660" as="sourcePoint" />
            <mxPoint x="1270" y="661" as="targetPoint" />
          </mxGeometry>
        </mxCell>
        <mxCell id="zAETe-kaXZAgj4HdxsVo-248" value="" style="edgeStyle=none;verticalLabelPosition=top;verticalAlign=bottom;endArrow=none;startArrow=classic;dashed=1;" edge="1" parent="1">
          <mxGeometry x="1055" y="588.4988734567901" width="100" height="100" as="geometry">
            <mxPoint x="1060" y="676" as="sourcePoint" />
            <mxPoint x="1160" y="676" as="targetPoint" />
          </mxGeometry>
        </mxCell>
        <mxCell id="zAETe-kaXZAgj4HdxsVo-249" value="" style="edgeStyle=none;verticalLabelPosition=top;verticalAlign=bottom;endArrow=none;startArrow=classic;dashed=1;exitX=1.1;exitY=0.918;exitDx=0;exitDy=0;exitPerimeter=0;" edge="1" parent="1" source="zAETe-kaXZAgj4HdxsVo-234">
          <mxGeometry x="927.5" y="602.4988734567901" width="100" height="100" as="geometry">
            <mxPoint x="812" y="690.33" as="sourcePoint" />
            <mxPoint x="1047.5" y="689.9988734567901" as="targetPoint" />
          </mxGeometry>
        </mxCell>
        <mxCell id="zAETe-kaXZAgj4HdxsVo-250" value="docker kill &amp;lt;cid&amp;gt;" style="rounded=0;whiteSpace=wrap;html=1;fillColor=#fff2cc;strokeColor=#d6b656;" vertex="1" parent="1">
          <mxGeometry x="540" y="758" width="120" height="30" as="geometry" />
        </mxCell>
        <mxCell id="zAETe-kaXZAgj4HdxsVo-251" value="" style="fillColor=#CC4125;strokeColor=#660000" vertex="1" parent="1">
          <mxGeometry x="660" y="750" width="10" height="100" as="geometry" />
        </mxCell>
        <mxCell id="zAETe-kaXZAgj4HdxsVo-252" value="" style="edgeStyle=none;dashed=1;endArrow=none" edge="1" parent="1" source="zAETe-kaXZAgj4HdxsVo-234" target="zAETe-kaXZAgj4HdxsVo-251">
          <mxGeometry x="510" y="570" width="100" height="100" as="geometry">
            <mxPoint x="665" y="700" as="sourcePoint" />
            <mxPoint x="665" y="820" as="targetPoint" />
          </mxGeometry>
        </mxCell>
        <mxCell id="zAETe-kaXZAgj4HdxsVo-253" value="" style="edgeStyle=none;dashed=1;endArrow=none" edge="1" parent="1">
          <mxGeometry x="509.5" y="720" width="100" height="100" as="geometry">
            <mxPoint x="664.5" y="850" as="sourcePoint" />
            <mxPoint x="665" y="1020" as="targetPoint" />
          </mxGeometry>
        </mxCell>
        <mxCell id="zAETe-kaXZAgj4HdxsVo-254" value="" style="endArrow=classic;html=1;strokeColor=#FF0000;exitX=0.9;exitY=0.655;exitDx=0;exitDy=0;exitPerimeter=0;" edge="1" parent="1">
          <mxGeometry width="50" height="50" relative="1" as="geometry">
            <mxPoint x="669" y="808.05" as="sourcePoint" />
            <mxPoint x="1304" y="808" as="targetPoint" />
          </mxGeometry>
        </mxCell>
        <mxCell id="zAETe-kaXZAgj4HdxsVo-255" value="kill + kill -9" style="text;html=1;strokeColor=none;fillColor=none;align=center;verticalAlign=middle;whiteSpace=wrap;rounded=0;" vertex="1" parent="1">
          <mxGeometry x="910" y="788" width="70" height="20" as="geometry" />
        </mxCell>
        <mxCell id="zAETe-kaXZAgj4HdxsVo-256" value="" style="edgeStyle=none;endArrow=none;dashed=1" edge="1" parent="1">
          <mxGeometry x="1338.5711805555559" y="577.3671450617285" width="100" height="100" as="geometry">
            <mxPoint x="1309.8333333333333" y="676" as="sourcePoint" />
            <mxPoint x="1309.5" y="786" as="targetPoint" />
          </mxGeometry>
        </mxCell>
        <mxCell id="zAETe-kaXZAgj4HdxsVo-257" value="" style="fillColor=#CC4125;strokeColor=#660000" vertex="1" parent="1">
          <mxGeometry x="1305" y="790" width="10" height="60" as="geometry" />
        </mxCell>
        <mxCell id="zAETe-kaXZAgj4HdxsVo-258" value="" style="endArrow=classic;html=1;entryX=1;entryY=0.5;entryDx=0;entryDy=0;edgeStyle=orthogonalEdgeStyle;jumpStyle=sharp;rounded=0;" edge="1" parent="1">
          <mxGeometry width="50" height="50" relative="1" as="geometry">
            <mxPoint x="670" y="755" as="sourcePoint" />
            <mxPoint x="670" y="792" as="targetPoint" />
            <Array as="points">
              <mxPoint x="700" y="755" />
              <mxPoint x="700" y="792" />
            </Array>
          </mxGeometry>
        </mxCell>
        <mxCell id="zAETe-kaXZAgj4HdxsVo-259" value="" style="endArrow=classic;html=1;strokeColor=#000000;" edge="1" parent="1">
          <mxGeometry width="50" height="50" relative="1" as="geometry">
            <mxPoint x="669" y="840" as="sourcePoint" />
            <mxPoint x="810" y="840" as="targetPoint" />
          </mxGeometry>
        </mxCell>
        <mxCell id="zAETe-kaXZAgj4HdxsVo-260" value="wait chan close" style="text;html=1;strokeColor=none;fillColor=none;align=center;verticalAlign=middle;whiteSpace=wrap;rounded=0;" vertex="1" parent="1">
          <mxGeometry x="710" y="820" width="85" height="20" as="geometry" />
        </mxCell>
        <mxCell id="zAETe-kaXZAgj4HdxsVo-261" value="" style="fillColor=#CC4125;strokeColor=#660000" vertex="1" parent="1">
          <mxGeometry x="802.5" y="850" width="10" height="170" as="geometry" />
        </mxCell>
        <mxCell id="zAETe-kaXZAgj4HdxsVo-262" value="" style="edgeStyle=none;endArrow=none;dashed=1" edge="1" parent="1" source="zAETe-kaXZAgj4HdxsVo-221" target="zAETe-kaXZAgj4HdxsVo-261">
          <mxGeometry x="836.5711805555559" y="609.6971450617284" width="100" height="100" as="geometry">
            <mxPoint x="807.547619047619" y="530" as="sourcePoint" />
            <mxPoint x="808" y="910" as="targetPoint" />
          </mxGeometry>
        </mxCell>
        <mxCell id="zAETe-kaXZAgj4HdxsVo-263" value="" style="edgeStyle=none;verticalLabelPosition=top;verticalAlign=bottom;endArrow=none;startArrow=classic;dashed=1;exitX=1;exitY=0.5;exitDx=0;exitDy=0;" edge="1" parent="1" source="zAETe-kaXZAgj4HdxsVo-264">
          <mxGeometry x="1185" y="752.4988734567901" width="100" height="100" as="geometry">
            <mxPoint x="1170" y="840" as="sourcePoint" />
            <mxPoint x="1305" y="839.9988734567901" as="targetPoint" />
          </mxGeometry>
        </mxCell>
        <mxCell id="zAETe-kaXZAgj4HdxsVo-264" value="" style="fillColor=#CC4125;strokeColor=#660000" vertex="1" parent="1">
          <mxGeometry x="1165" y="820" width="10" height="40" as="geometry" />
        </mxCell>
        <mxCell id="zAETe-kaXZAgj4HdxsVo-265" value="" style="edgeStyle=none;endArrow=none;dashed=1" edge="1" parent="1" target="zAETe-kaXZAgj4HdxsVo-264">
          <mxGeometry x="1198.5711805555559" y="591.3671450617285" width="100" height="100" as="geometry">
            <mxPoint x="1169.6598078429756" y="690" as="sourcePoint" />
            <mxPoint x="1170" y="860" as="targetPoint" />
          </mxGeometry>
        </mxCell>
        <mxCell id="zAETe-kaXZAgj4HdxsVo-266" value="childsig" style="text;html=1;strokeColor=none;fillColor=none;align=center;verticalAlign=middle;whiteSpace=wrap;rounded=0;" vertex="1" parent="1">
          <mxGeometry x="1210" y="820" width="70" height="20" as="geometry" />
        </mxCell>
        <mxCell id="zAETe-kaXZAgj4HdxsVo-267" value="" style="fillColor=#CC4125;strokeColor=#660000" vertex="1" parent="1">
          <mxGeometry x="1047.5" y="820" width="10" height="60" as="geometry" />
        </mxCell>
        <mxCell id="zAETe-kaXZAgj4HdxsVo-268" value="" style="edgeStyle=none;endArrow=none;dashed=1" edge="1" parent="1" source="zAETe-kaXZAgj4HdxsVo-238" target="zAETe-kaXZAgj4HdxsVo-267">
          <mxGeometry x="1081.0711805555559" y="601.3671450617285" width="100" height="100" as="geometry">
            <mxPoint x="1052.3720930232557" y="700" as="sourcePoint" />
            <mxPoint x="1052" y="860" as="targetPoint" />
          </mxGeometry>
        </mxCell>
        <mxCell id="zAETe-kaXZAgj4HdxsVo-269" value="" style="edgeStyle=none;verticalLabelPosition=top;verticalAlign=bottom;endArrow=none;startArrow=classic;dashed=1;exitX=1;exitY=0.5;exitDx=0;exitDy=0;" edge="1" parent="1" source="zAETe-kaXZAgj4HdxsVo-267">
          <mxGeometry x="1045" y="761.4988734567901" width="100" height="100" as="geometry">
            <mxPoint x="788.5" y="849.98" as="sourcePoint" />
            <mxPoint x="1165" y="848.9988734567901" as="targetPoint" />
          </mxGeometry>
        </mxCell>
        <mxCell id="zAETe-kaXZAgj4HdxsVo-270" value="task exit" style="text;html=1;strokeColor=none;fillColor=none;align=center;verticalAlign=middle;whiteSpace=wrap;rounded=0;" vertex="1" parent="1">
          <mxGeometry x="1080" y="830" width="70" height="20" as="geometry" />
        </mxCell>
        <mxCell id="zAETe-kaXZAgj4HdxsVo-271" value="" style="edgeStyle=none;verticalLabelPosition=top;verticalAlign=bottom;endArrow=none;startArrow=classic;dashed=1;" edge="1" parent="1">
          <mxGeometry x="926.5" y="782.4988734567901" width="100" height="100" as="geometry">
            <mxPoint x="810" y="870" as="sourcePoint" />
            <mxPoint x="1046.5" y="869.9988734567901" as="targetPoint" />
          </mxGeometry>
        </mxCell>
        <mxCell id="zAETe-kaXZAgj4HdxsVo-272" value="task exit" style="text;html=1;strokeColor=none;fillColor=none;align=center;verticalAlign=middle;whiteSpace=wrap;rounded=0;" vertex="1" parent="1">
          <mxGeometry x="900" y="850" width="70" height="20" as="geometry" />
        </mxCell>
        <mxCell id="zAETe-kaXZAgj4HdxsVo-273" value="" style="endArrow=classic;html=1;entryX=1;entryY=0.5;entryDx=0;entryDy=0;edgeStyle=orthogonalEdgeStyle;jumpStyle=sharp;rounded=0;" edge="1" parent="1">
          <mxGeometry width="50" height="50" relative="1" as="geometry">
            <mxPoint x="812.5" y="970" as="sourcePoint" />
            <mxPoint x="812.5" y="1010" as="targetPoint" />
            <Array as="points">
              <mxPoint x="840" y="970" />
              <mxPoint x="840" y="1010" />
            </Array>
          </mxGeometry>
        </mxCell>
        <mxCell id="zAETe-kaXZAgj4HdxsVo-274" value="" style="edgeStyle=none;endArrow=none;dashed=1" edge="1" parent="1" source="zAETe-kaXZAgj4HdxsVo-275">
          <mxGeometry x="1080.5711805555559" y="781.3671450617285" width="100" height="100" as="geometry">
            <mxPoint x="1052" y="880" as="sourcePoint" />
            <mxPoint x="1052" y="1000" as="targetPoint" />
          </mxGeometry>
        </mxCell>
        <mxCell id="zAETe-kaXZAgj4HdxsVo-275" value="" style="fillColor=#CC4125;strokeColor=#660000" vertex="1" parent="1">
          <mxGeometry x="1047.5" y="910" width="10" height="60" as="geometry" />
        </mxCell>
        <mxCell id="zAETe-kaXZAgj4HdxsVo-276" value="" style="edgeStyle=none;endArrow=none;dashed=1" edge="1" parent="1" target="zAETe-kaXZAgj4HdxsVo-275">
          <mxGeometry x="1080.5711805555559" y="781.3671450617285" width="100" height="100" as="geometry">
            <mxPoint x="1052" y="880" as="sourcePoint" />
            <mxPoint x="1052" y="1000" as="targetPoint" />
          </mxGeometry>
        </mxCell>
        <mxCell id="zAETe-kaXZAgj4HdxsVo-277" value="delete task" style="edgeStyle=none;verticalLabelPosition=top;verticalAlign=bottom;entryX=0.05;entryY=0.15;entryDx=0;entryDy=0;entryPerimeter=0;" edge="1" parent="1" target="zAETe-kaXZAgj4HdxsVo-275">
          <mxGeometry x="822.5" y="832.5" width="100" height="100" as="geometry">
            <mxPoint x="812.5" y="920" as="sourcePoint" />
            <mxPoint x="1190" y="920.5" as="targetPoint" />
          </mxGeometry>
        </mxCell>
        <mxCell id="zAETe-kaXZAgj4HdxsVo-278" value="" style="edgeStyle=none;endArrow=none;dashed=1" edge="1" parent="1">
          <mxGeometry x="1198.4111805555558" y="761.3671450617285" width="100" height="100" as="geometry">
            <mxPoint x="1169.4998078429758" y="860" as="sourcePoint" />
            <mxPoint x="1170" y="930" as="targetPoint" />
          </mxGeometry>
        </mxCell>
        <mxCell id="zAETe-kaXZAgj4HdxsVo-279" value="kill shim" style="edgeStyle=none;verticalLabelPosition=top;verticalAlign=bottom;entryX=0;entryY=0.5;entryDx=0;entryDy=0;exitX=1.15;exitY=0.4;exitDx=0;exitDy=0;exitPerimeter=0;" edge="1" parent="1" source="zAETe-kaXZAgj4HdxsVo-275" target="zAETe-kaXZAgj4HdxsVo-280">
          <mxGeometry x="1067.5" y="842.5" width="100" height="100" as="geometry">
            <mxPoint x="1057.5" y="930" as="sourcePoint" />
            <mxPoint x="1165" y="930" as="targetPoint" />
          </mxGeometry>
        </mxCell>
        <mxCell id="zAETe-kaXZAgj4HdxsVo-280" value="" style="shape=sumEllipse;perimeter=ellipsePerimeter;whiteSpace=wrap;html=1;backgroundOutline=1;" vertex="1" parent="1">
          <mxGeometry x="1155" y="920" width="30" height="30" as="geometry" />
        </mxCell>
        <mxCell id="zAETe-kaXZAgj4HdxsVo-281" value="" style="edgeStyle=none;verticalLabelPosition=top;verticalAlign=bottom;endArrow=none;startArrow=classic;dashed=1;" edge="1" parent="1">
          <mxGeometry x="927.5" y="862.4988734567901" width="100" height="100" as="geometry">
            <mxPoint x="811" y="950" as="sourcePoint" />
            <mxPoint x="1047.5" y="949.9988734567901" as="targetPoint" />
          </mxGeometry>
        </mxCell>
        <mxCell id="zAETe-kaXZAgj4HdxsVo-282" value="close chan" style="text;html=1;strokeColor=none;fillColor=none;align=center;verticalAlign=middle;whiteSpace=wrap;rounded=0;" vertex="1" parent="1">
          <mxGeometry x="840" y="980" width="85" height="20" as="geometry" />
        </mxCell>
        <mxCell id="zAETe-kaXZAgj4HdxsVo-283" value="" style="edgeStyle=none;verticalLabelPosition=top;verticalAlign=bottom;endArrow=none;startArrow=classic;dashed=1;" edge="1" parent="1">
          <mxGeometry x="682.5" y="922.4988734567901" width="100" height="100" as="geometry">
            <mxPoint x="670" y="1010" as="sourcePoint" />
            <mxPoint x="802.5" y="1009.9988734567901" as="targetPoint" />
          </mxGeometry>
        </mxCell>
        <mxCell id="zAETe-kaXZAgj4HdxsVo-285" value="kubelet" style="shadow=1;fillColor=#A2C4C9;strokeColor=none" vertex="1" parent="1">
          <mxGeometry x="470" y="330" width="105" height="50" as="geometry" />
        </mxCell>
        <mxCell id="zAETe-kaXZAgj4HdxsVo-286" value="" style="edgeStyle=elbowEdgeStyle;elbow=horizontal;endArrow=none;dashed=1" edge="1" parent="1" source="zAETe-kaXZAgj4HdxsVo-294">
          <mxGeometry x="547.5" y="580" width="100" height="100" as="geometry">
            <mxPoint x="547.5" y="680" as="sourcePoint" />
            <mxPoint x="523" y="1060" as="targetPoint" />
          </mxGeometry>
        </mxCell>
        <mxCell id="zAETe-kaXZAgj4HdxsVo-294" value="" style="fillColor=#CC4125;strokeColor=#660000" vertex="1" parent="1">
          <mxGeometry x="517.5" y="420" width="10" height="580" as="geometry" />
        </mxCell>
        <mxCell id="zAETe-kaXZAgj4HdxsVo-295" value="" style="edgeStyle=elbowEdgeStyle;elbow=horizontal;endArrow=none;dashed=1" edge="1" parent="1" source="zAETe-kaXZAgj4HdxsVo-285" target="zAETe-kaXZAgj4HdxsVo-294">
          <mxGeometry x="547.5" y="580" width="100" height="100" as="geometry">
            <mxPoint x="523" y="380" as="sourcePoint" />
            <mxPoint x="523" y="1020" as="targetPoint" />
          </mxGeometry>
        </mxCell>
      </root>
    </mxGraphModel>
  </diagram>
</mxfile>
